<?xml version="1.0" encoding="UTF-8" standalone="no"?>
<!DOCTYPE svg PUBLIC "-//W3C//DTD SVG 1.1//EN"
 "http://www.w3.org/Graphics/SVG/1.1/DTD/svg11.dtd">
<!-- Generated by graphviz version 2.38.0 (20140413.2041)
 -->
<!-- Title: G Pages: 1 -->
<svg width="631pt" height="2174pt"
 viewBox="0.00 0.00 630.66 2174.00" xmlns="http://www.w3.org/2000/svg" xmlns:xlink="http://www.w3.org/1999/xlink">
<g id="graph0" class="graph" transform="scale(1 1) rotate(0) translate(4 2170)">
<title>G</title>
<polygon fill="white" stroke="none" points="-4,4 -4,-2170 626.664,-2170 626.664,4 -4,4"/>
<g id="clust1" class="cluster"><title>cluster_Global</title>
<path fill="none" stroke="gray" d="M147.832,-98C147.832,-98 602.664,-98 602.664,-98 608.664,-98 614.664,-104 614.664,-110 614.664,-110 614.664,-2146 614.664,-2146 614.664,-2152 608.664,-2158 602.664,-2158 602.664,-2158 147.832,-2158 147.832,-2158 141.832,-2158 135.832,-2152 135.832,-2146 135.832,-2146 135.832,-110 135.832,-110 135.832,-104 141.832,-98 147.832,-98"/>
<text text-anchor="middle" x="375.248" y="-2145.2" font-family="Times,serif" font-size="11.00" fill="gray">Global</text>
</g>
<g id="clust2" class="cluster"><title>cluster_\Lobby</title>
<path fill="none" stroke="gray" d="M155.832,-422C155.832,-422 594.664,-422 594.664,-422 600.664,-422 606.664,-428 606.664,-434 606.664,-434 606.664,-2074 606.664,-2074 606.664,-2080 600.664,-2086 594.664,-2086 594.664,-2086 155.832,-2086 155.832,-2086 149.832,-2086 143.832,-2080 143.832,-2074 143.832,-2074 143.832,-434 143.832,-434 143.832,-428 149.832,-422 155.832,-422"/>
<text text-anchor="middle" x="375.248" y="-2073.2" font-family="Times,serif" font-size="11.00" fill="gray">Lobby</text>
</g>
<g id="clust3" class="cluster"><title>cluster_\Lobby\Apps</title>
<path fill="none" stroke="gray" d="M511.664,-1878C511.664,-1878 560.664,-1878 560.664,-1878 566.664,-1878 572.664,-1884 572.664,-1890 572.664,-1890 572.664,-2046 572.664,-2046 572.664,-2052 566.664,-2058 560.664,-2058 560.664,-2058 511.664,-2058 511.664,-2058 505.664,-2058 499.664,-2052 499.664,-2046 499.664,-2046 499.664,-1890 499.664,-1890 499.664,-1884 505.664,-1878 511.664,-1878"/>
<text text-anchor="middle" x="536.164" y="-2045.2" font-family="Times,serif" font-size="11.00" fill="gray">Apps</text>
</g>
<g id="clust4" class="cluster"><title>cluster_\Lobby\CLI</title>
<path fill="none" stroke="gray" d="M508.164,-1636C508.164,-1636 564.164,-1636 564.164,-1636 570.164,-1636 576.164,-1642 576.164,-1648 576.164,-1648 576.164,-1858 576.164,-1858 576.164,-1864 570.164,-1870 564.164,-1870 564.164,-1870 508.164,-1870 508.164,-1870 502.164,-1870 496.164,-1864 496.164,-1858 496.164,-1858 496.164,-1648 496.164,-1648 496.164,-1642 502.164,-1636 508.164,-1636"/>
<text text-anchor="middle" x="536.164" y="-1857.2" font-family="Times,serif" font-size="11.00" fill="gray">CLI</text>
</g>
<g id="clust5" class="cluster"><title>cluster_\Lobby\UI</title>
<path fill="none" stroke="gray" d="M511.664,-1448C511.664,-1448 560.664,-1448 560.664,-1448 566.664,-1448 572.664,-1454 572.664,-1460 572.664,-1460 572.664,-1616 572.664,-1616 572.664,-1622 566.664,-1628 560.664,-1628 560.664,-1628 511.664,-1628 511.664,-1628 505.664,-1628 499.664,-1622 499.664,-1616 499.664,-1616 499.664,-1460 499.664,-1460 499.664,-1454 505.664,-1448 511.664,-1448"/>
<text text-anchor="middle" x="536.164" y="-1615.2" font-family="Times,serif" font-size="11.00" fill="gray">UI</text>
</g>
<!-- \\Lobby\\Apps\\Panel -->
<g id="node1" class="node"><title>\\Lobby\\Apps\\Panel</title>
<polygon fill="none" stroke="black" points="563.164,-2030 509.164,-2030 509.164,-1994 563.164,-1994 563.164,-2030"/>
<text text-anchor="middle" x="536.164" y="-2009.2" font-family="Courier,monospace" font-size="11.00">Panel</text>
</g>
<!-- \\Lobby\\Apps\\Data -->
<g id="node2" class="node"><title>\\Lobby\\Apps\\Data</title>
<polygon fill="none" stroke="black" points="563.164,-1976 509.164,-1976 509.164,-1940 563.164,-1940 563.164,-1976"/>
<text text-anchor="middle" x="536.164" y="-1955.2" font-family="Courier,monospace" font-size="11.00">Data</text>
</g>
<!-- \\Lobby\\Apps\\Router -->
<g id="node3" class="node"><title>\\Lobby\\Apps\\Router</title>
<polygon fill="none" stroke="black" points="564.664,-1922 507.664,-1922 507.664,-1886 564.664,-1886 564.664,-1922"/>
<text text-anchor="middle" x="536.164" y="-1901.2" font-family="Courier,monospace" font-size="11.00">Router</text>
</g>
<!-- \\Lobby\\CLI\\App -->
<g id="node4" class="node"><title>\\Lobby\\CLI\\App</title>
<polygon fill="none" stroke="black" points="563.164,-1842 509.164,-1842 509.164,-1806 563.164,-1806 563.164,-1842"/>
<text text-anchor="middle" x="536.164" y="-1821.2" font-family="Courier,monospace" font-size="11.00">App</text>
</g>
<!-- \\Symfony\\Component\\Console\\Command\\Command -->
<g id="node39" class="node"><title>\\Symfony\\Component\\Console\\Command\\Command</title>
<ellipse fill="none" stroke="black" cx="200.832" cy="-72" rx="200.665" ry="18"/>
<text text-anchor="middle" x="200.832" y="-68.3" font-family="Times,serif" font-size="14.00" fill="gray">\Symfony\Component\Console\Command\Command</text>
</g>
<!-- \\Lobby\\CLI\\App&#45;&gt;\\Symfony\\Component\\Console\\Command\\Command -->
<g id="edge3" class="edge"><title>\\Lobby\\CLI\\App&#45;&gt;\\Symfony\\Component\\Console\\Command\\Command</title>
<path fill="none" stroke="black" d="M508.901,-1819.17C496.098,-1815.38 481.751,-1808.7 473.664,-1797 386.445,-1670.77 445.238,-565.114 401.664,-418 362.956,-287.312 265.945,-153.408 222.933,-98.2136"/>
<polygon fill="none" stroke="black" points="225.443,-95.7424 216.511,-90.0437 219.939,-100.068 225.443,-95.7424"/>
</g>
<!-- \\Lobby\\CLI\\Notify -->
<g id="node5" class="node"><title>\\Lobby\\CLI\\Notify</title>
<polygon fill="none" stroke="black" points="564.664,-1788 507.664,-1788 507.664,-1752 564.664,-1752 564.664,-1788"/>
<text text-anchor="middle" x="536.164" y="-1767.2" font-family="Courier,monospace" font-size="11.00">Notify</text>
</g>
<!-- \\Lobby\\CLI\\Notify&#45;&gt;\\Symfony\\Component\\Console\\Command\\Command -->
<g id="edge6" class="edge"><title>\\Lobby\\CLI\\Notify&#45;&gt;\\Symfony\\Component\\Console\\Command\\Command</title>
<path fill="none" stroke="black" d="M507.647,-1764.78C495.177,-1760.93 481.498,-1754.31 473.664,-1743 389.722,-1621.79 443.686,-559.324 401.664,-418 362.817,-287.353 265.881,-153.427 222.911,-98.2203"/>
<polygon fill="none" stroke="black" points="225.423,-95.7525 216.495,-90.0484 219.917,-100.075 225.423,-95.7525"/>
</g>
<!-- \\Lobby\\CLI\\Install -->
<g id="node6" class="node"><title>\\Lobby\\CLI\\Install</title>
<polygon fill="none" stroke="black" points="568.164,-1734 504.164,-1734 504.164,-1698 568.164,-1698 568.164,-1734"/>
<text text-anchor="middle" x="536.164" y="-1713.2" font-family="Courier,monospace" font-size="11.00">Install</text>
</g>
<!-- \\Lobby\\CLI\\Install&#45;&gt;\\Symfony\\Component\\Console\\Command\\Command -->
<g id="edge7" class="edge"><title>\\Lobby\\CLI\\Install&#45;&gt;\\Symfony\\Component\\Console\\Command\\Command</title>
<path fill="none" stroke="black" d="M504.146,-1709.62C492.691,-1705.65 480.78,-1699.25 473.664,-1689 392.999,-1572.81 442.135,-553.535 401.664,-418 362.667,-287.398 265.811,-153.448 222.886,-98.2275"/>
<polygon fill="none" stroke="black" points="225.402,-95.7635 216.477,-90.0536 219.893,-100.083 225.402,-95.7635"/>
</g>
<!-- \\Lobby\\CLI\\Lobby -->
<g id="node7" class="node"><title>\\Lobby\\CLI\\Lobby</title>
<polygon fill="none" stroke="black" points="563.164,-1680 509.164,-1680 509.164,-1644 563.164,-1644 563.164,-1680"/>
<text text-anchor="middle" x="536.164" y="-1659.2" font-family="Courier,monospace" font-size="11.00">Lobby</text>
</g>
<!-- \\Lobby\\CLI\\Lobby&#45;&gt;\\Symfony\\Component\\Console\\Command\\Command -->
<g id="edge10" class="edge"><title>\\Lobby\\CLI\\Lobby&#45;&gt;\\Symfony\\Component\\Console\\Command\\Command</title>
<path fill="none" stroke="black" d="M508.863,-1655.86C496.049,-1651.44 481.705,-1644.06 473.664,-1632 323.735,-1407.15 479.33,-676.851 401.664,-418 362.494,-287.449 265.73,-153.472 222.858,-98.2359"/>
<polygon fill="none" stroke="black" points="225.378,-95.7762 216.457,-90.0596 219.866,-100.091 225.378,-95.7762"/>
</g>
<!-- \\Lobby\\UI\\Themes -->
<g id="node8" class="node"><title>\\Lobby\\UI\\Themes</title>
<polygon fill="none" stroke="black" points="564.664,-1600 507.664,-1600 507.664,-1564 564.664,-1564 564.664,-1600"/>
<text text-anchor="middle" x="536.164" y="-1579.2" font-family="Courier,monospace" font-size="11.00">Themes</text>
</g>
<!-- \\Lobby\\UI\\Panel -->
<g id="node9" class="node"><title>\\Lobby\\UI\\Panel</title>
<polygon fill="none" stroke="black" points="563.164,-1546 509.164,-1546 509.164,-1510 563.164,-1510 563.164,-1546"/>
<text text-anchor="middle" x="536.164" y="-1525.2" font-family="Courier,monospace" font-size="11.00">Panel</text>
</g>
<!-- \\Lobby\\UI\\Theme -->
<g id="node10" class="node"><title>\\Lobby\\UI\\Theme</title>
<polygon fill="none" stroke="black" points="563.164,-1492 509.164,-1492 509.164,-1456 563.164,-1456 563.164,-1492"/>
<text text-anchor="middle" x="536.164" y="-1471.2" font-family="Courier,monospace" font-size="11.00">Theme</text>
</g>
<!-- \\Lobby\\Time -->
<g id="node11" class="node"><title>\\Lobby\\Time</title>
<polygon fill="none" stroke="black" points="563.164,-1438 509.164,-1438 509.164,-1402 563.164,-1402 563.164,-1438"/>
<text text-anchor="middle" x="536.164" y="-1417.2" font-family="Courier,monospace" font-size="11.00">Time</text>
</g>
<!-- \\Lobby\\Modules -->
<g id="node12" class="node"><title>\\Lobby\\Modules</title>
<polygon fill="none" stroke="black" points="568.164,-1114 504.164,-1114 504.164,-1078 568.164,-1078 568.164,-1114"/>
<text text-anchor="middle" x="536.164" y="-1093.2" font-family="Courier,monospace" font-size="11.00">Modules</text>
</g>
<!-- \\Lobby -->
<g id="node36" class="node"><title>\\Lobby</title>
<polygon fill="none" stroke="black" points="227.832,-2130 173.832,-2130 173.832,-2094 227.832,-2094 227.832,-2130"/>
<text text-anchor="middle" x="200.832" y="-2109.2" font-family="Courier,monospace" font-size="11.00">Lobby</text>
</g>
<!-- \\Lobby\\Modules&#45;&gt;\\Lobby -->
<g id="edge1" class="edge"><title>\\Lobby\\Modules&#45;&gt;\\Lobby</title>
<path fill="none" stroke="black" d="M503.917,-1102.55C492.574,-1106.55 480.803,-1112.91 473.664,-1123 349.214,-1298.91 551.319,-1934.96 401.664,-2090 359.723,-2133.45 283.193,-2128.22 237.987,-2120.26"/>
<polygon fill="none" stroke="black" points="238.501,-2116.79 228.024,-2118.37 237.198,-2123.67 238.501,-2116.79"/>
</g>
<!-- \\Lobby\\Module -->
<g id="node13" class="node"><title>\\Lobby\\Module</title>
<polygon fill="none" stroke="black" points="564.664,-1330 507.664,-1330 507.664,-1294 564.664,-1294 564.664,-1330"/>
<text text-anchor="middle" x="536.164" y="-1309.2" font-family="Courier,monospace" font-size="11.00">Module</text>
</g>
<!-- \\Lobby\\Need -->
<g id="node14" class="node"><title>\\Lobby\\Need</title>
<polygon fill="none" stroke="black" points="563.164,-1276 509.164,-1276 509.164,-1240 563.164,-1240 563.164,-1276"/>
<text text-anchor="middle" x="536.164" y="-1255.2" font-family="Courier,monospace" font-size="11.00">Need</text>
</g>
<!-- \\Lobby\\CLI -->
<g id="node15" class="node"><title>\\Lobby\\CLI</title>
<polygon fill="none" stroke="black" points="563.164,-466 509.164,-466 509.164,-430 563.164,-430 563.164,-466"/>
<text text-anchor="middle" x="536.164" y="-445.2" font-family="Courier,monospace" font-size="11.00">CLI</text>
</g>
<!-- \\Symfony\\Component\\Console\\Application -->
<g id="node38" class="node"><title>\\Symfony\\Component\\Console\\Application</title>
<ellipse fill="none" stroke="black" cx="200.832" cy="-18" rx="165.171" ry="18"/>
<text text-anchor="middle" x="200.832" y="-14.3" font-family="Times,serif" font-size="14.00" fill="gray">\Symfony\Component\Console\Application</text>
</g>
<!-- \\Lobby\\CLI&#45;&gt;\\Symfony\\Component\\Console\\Application -->
<g id="edge2" class="edge"><title>\\Lobby\\CLI&#45;&gt;\\Symfony\\Component\\Console\\Application</title>
<path fill="none" stroke="black" d="M509.019,-444.73C496.569,-441.827 482.503,-436.346 473.664,-426 361.724,-294.977 526.675,-163.617 401.664,-45 393.12,-36.8928 383.37,-30.4502 372.879,-25.3747"/>
<polygon fill="none" stroke="black" points="374.045,-22.0642 363.48,-21.2588 371.237,-28.4764 374.045,-22.0642"/>
</g>
<!-- \\Lobby\\FS -->
<g id="node16" class="node"><title>\\Lobby\\FS</title>
<polygon fill="none" stroke="black" points="563.164,-1168 509.164,-1168 509.164,-1132 563.164,-1132 563.164,-1168"/>
<text text-anchor="middle" x="536.164" y="-1147.2" font-family="Courier,monospace" font-size="11.00">FS</text>
</g>
<!-- \\Lobby\\Install -->
<g id="node17" class="node"><title>\\Lobby\\Install</title>
<polygon fill="none" stroke="black" points="568.164,-898 504.164,-898 504.164,-862 568.164,-862 568.164,-898"/>
<text text-anchor="middle" x="536.164" y="-877.2" font-family="Courier,monospace" font-size="11.00">Install</text>
</g>
<!-- \\Lobby\\Install&#45;&gt;\\Lobby -->
<g id="edge4" class="edge"><title>\\Lobby\\Install&#45;&gt;\\Lobby</title>
<path fill="none" stroke="black" d="M503.847,-886.504C492.494,-890.49 480.735,-896.861 473.664,-907 323.013,-1123.03 583.294,-1899.27 401.664,-2090 360.018,-2133.73 283.384,-2128.4 238.08,-2120.35"/>
<polygon fill="none" stroke="black" points="238.574,-2116.88 228.095,-2118.44 237.259,-2123.75 238.574,-2116.88"/>
</g>
<!-- \\Lobby\\Server -->
<g id="node18" class="node"><title>\\Lobby\\Server</title>
<polygon fill="none" stroke="black" points="564.664,-1060 507.664,-1060 507.664,-1024 564.664,-1024 564.664,-1060"/>
<text text-anchor="middle" x="536.164" y="-1039.2" font-family="Courier,monospace" font-size="11.00">Server</text>
</g>
<!-- \\Lobby\\StreamReader -->
<g id="node19" class="node"><title>\\Lobby\\StreamReader</title>
<polygon fill="none" stroke="black" points="585.164,-1006 487.164,-1006 487.164,-970 585.164,-970 585.164,-1006"/>
<text text-anchor="middle" x="536.164" y="-985.2" font-family="Courier,monospace" font-size="11.00">StreamReader</text>
</g>
<!-- \\Lobby\\StringReader -->
<g id="node20" class="node"><title>\\Lobby\\StringReader</title>
<polygon fill="none" stroke="black" points="249.832,-520 151.832,-520 151.832,-484 249.832,-484 249.832,-520"/>
<text text-anchor="middle" x="200.832" y="-499.2" font-family="Courier,monospace" font-size="11.00">StringReader</text>
</g>
<!-- \\Lobby\\FileReader -->
<g id="node21" class="node"><title>\\Lobby\\FileReader</title>
<polygon fill="none" stroke="black" points="578.164,-952 494.164,-952 494.164,-916 578.164,-916 578.164,-952"/>
<text text-anchor="middle" x="536.164" y="-931.2" font-family="Courier,monospace" font-size="11.00">FileReader</text>
</g>
<!-- \\Lobby\\CachedFileReader -->
<g id="node22" class="node"><title>\\Lobby\\CachedFileReader</title>
<polygon fill="none" stroke="black" points="598.664,-520 473.664,-520 473.664,-484 598.664,-484 598.664,-520"/>
<text text-anchor="middle" x="536.164" y="-499.2" font-family="Courier,monospace" font-size="11.00">CachedFileReader</text>
</g>
<!-- \\Lobby\\CachedFileReader&#45;&gt;\\Lobby\\StringReader -->
<g id="edge5" class="edge"><title>\\Lobby\\CachedFileReader&#45;&gt;\\Lobby\\StringReader</title>
<path fill="none" stroke="black" d="M473.638,-502C412.643,-502 319.895,-502 260.073,-502"/>
<polygon fill="none" stroke="black" points="260.034,-498.5 250.034,-502 260.034,-505.5 260.034,-498.5"/>
</g>
<!-- \\Lobby\\gettext_reader -->
<g id="node23" class="node"><title>\\Lobby\\gettext_reader</title>
<polygon fill="none" stroke="black" points="591.664,-844 480.664,-844 480.664,-808 591.664,-808 591.664,-844"/>
<text text-anchor="middle" x="536.164" y="-823.2" font-family="Courier,monospace" font-size="11.00">gettext_reader</text>
</g>
<!-- \\Lobby\\l10n -->
<g id="node24" class="node"><title>\\Lobby\\l10n</title>
<polygon fill="none" stroke="black" points="563.164,-790 509.164,-790 509.164,-754 563.164,-754 563.164,-790"/>
<text text-anchor="middle" x="536.164" y="-769.2" font-family="Courier,monospace" font-size="11.00">l10n</text>
</g>
<!-- \\Lobby\\App -->
<g id="node25" class="node"><title>\\Lobby\\App</title>
<polygon fill="none" stroke="black" points="563.164,-736 509.164,-736 509.164,-700 563.164,-700 563.164,-736"/>
<text text-anchor="middle" x="536.164" y="-715.2" font-family="Courier,monospace" font-size="11.00">App</text>
</g>
<!-- \\Lobby\\Apps -->
<g id="node26" class="node"><title>\\Lobby\\Apps</title>
<polygon fill="none" stroke="black" points="563.164,-682 509.164,-682 509.164,-646 563.164,-646 563.164,-682"/>
<text text-anchor="middle" x="536.164" y="-661.2" font-family="Courier,monospace" font-size="11.00">Apps</text>
</g>
<!-- \\Lobby\\FSObj -->
<g id="node27" class="node"><title>\\Lobby\\FSObj</title>
<polygon fill="none" stroke="black" points="563.164,-628 509.164,-628 509.164,-592 563.164,-592 563.164,-628"/>
<text text-anchor="middle" x="536.164" y="-607.2" font-family="Courier,monospace" font-size="11.00">FSObj</text>
</g>
<!-- \\Lobby\\Router -->
<g id="node28" class="node"><title>\\Lobby\\Router</title>
<polygon fill="none" stroke="black" points="564.664,-574 507.664,-574 507.664,-538 564.664,-538 564.664,-574"/>
<text text-anchor="middle" x="536.164" y="-553.2" font-family="Courier,monospace" font-size="11.00">Router</text>
</g>
<!-- \\Lobby\\DB -->
<g id="node29" class="node"><title>\\Lobby\\DB</title>
<polygon fill="none" stroke="black" points="563.164,-1384 509.164,-1384 509.164,-1348 563.164,-1348 563.164,-1384"/>
<text text-anchor="middle" x="536.164" y="-1363.2" font-family="Courier,monospace" font-size="11.00">DB</text>
</g>
<!-- \\Lobby\\DB&#45;&gt;\\Lobby -->
<g id="edge8" class="edge"><title>\\Lobby\\DB&#45;&gt;\\Lobby</title>
<path fill="none" stroke="black" d="M509.143,-1371C496.406,-1374.83 482.046,-1381.51 473.664,-1393 381.924,-1518.82 511.4,-1979.53 401.664,-2090 359.106,-2132.84 282.792,-2127.82 237.792,-2120.07"/>
<polygon fill="none" stroke="black" points="238.348,-2116.61 227.877,-2118.23 237.07,-2123.49 238.348,-2116.61"/>
</g>
<!-- \\Lobby\\Update -->
<g id="node30" class="node"><title>\\Lobby\\Update</title>
<polygon fill="none" stroke="black" points="564.664,-1222 507.664,-1222 507.664,-1186 564.664,-1186 564.664,-1222"/>
<text text-anchor="middle" x="536.164" y="-1201.2" font-family="Courier,monospace" font-size="11.00">Update</text>
</g>
<!-- \\Lobby\\Update&#45;&gt;\\Lobby -->
<g id="edge9" class="edge"><title>\\Lobby\\Update&#45;&gt;\\Lobby</title>
<path fill="none" stroke="black" d="M507.475,-1209.42C495.123,-1213.31 481.596,-1219.9 473.664,-1231 362.305,-1386.86 535.342,-1952.8 401.664,-2090 359.522,-2133.25 283.062,-2128.09 237.923,-2120.2"/>
<polygon fill="none" stroke="black" points="238.451,-2116.74 227.976,-2118.32 237.156,-2123.61 238.451,-2116.74"/>
</g>
<!-- \\Assets -->
<g id="node31" class="node"><title>\\Assets</title>
<polygon fill="none" stroke="black" points="564.664,-412 507.664,-412 507.664,-376 564.664,-376 564.664,-412"/>
<text text-anchor="middle" x="536.164" y="-391.2" font-family="Courier,monospace" font-size="11.00">Assets</text>
</g>
<!-- \\Response -->
<g id="node32" class="node"><title>\\Response</title>
<polygon fill="none" stroke="black" points="571.664,-358 500.664,-358 500.664,-322 571.664,-322 571.664,-358"/>
<text text-anchor="middle" x="536.164" y="-337.2" font-family="Courier,monospace" font-size="11.00">Response</text>
</g>
<!-- \\Request -->
<g id="node33" class="node"><title>\\Request</title>
<polygon fill="none" stroke="black" points="568.164,-304 504.164,-304 504.164,-268 568.164,-268 568.164,-304"/>
<text text-anchor="middle" x="536.164" y="-283.2" font-family="Courier,monospace" font-size="11.00">Request</text>
</g>
<!-- \\CSRF -->
<g id="node34" class="node"><title>\\CSRF</title>
<polygon fill="none" stroke="black" points="563.164,-250 509.164,-250 509.164,-214 563.164,-214 563.164,-250"/>
<text text-anchor="middle" x="536.164" y="-229.2" font-family="Courier,monospace" font-size="11.00">CSRF</text>
</g>
<!-- \\Hooks -->
<g id="node35" class="node"><title>\\Hooks</title>
<polygon fill="none" stroke="black" points="563.164,-196 509.164,-196 509.164,-160 563.164,-160 563.164,-196"/>
<text text-anchor="middle" x="536.164" y="-175.2" font-family="Courier,monospace" font-size="11.00">Hooks</text>
</g>
<!-- \\Helper -->
<g id="node37" class="node"><title>\\Helper</title>
<polygon fill="none" stroke="black" points="564.664,-142 507.664,-142 507.664,-106 564.664,-106 564.664,-142"/>
<text text-anchor="middle" x="536.164" y="-121.2" font-family="Courier,monospace" font-size="11.00">Helper</text>
</g>
</g>
</svg>
