<!-- Created with Inkscape (http://www.inkscape.org/) --><svg xmlns:rdf="http://www.w3.org/1999/02/22-rdf-syntax-ns#" xmlns="http://www.w3.org/2000/svg" height="300" width="300" version="1.1" xmlns:cc="http://creativecommons.org/ns#" xmlns:dc="http://purl.org/dc/elements/1.1/"><metadata><rdf:RDF><cc:Work rdf:about=""><dc:format>image/svg+xml</dc:format><dc:type rdf:resource="http://purl.org/dc/dcmitype/StillImage"/><dc:title/></cc:Work></rdf:RDF></metadata><g transform="translate(0,-752.36218)"><path d="m90.954,833.8a59.43,59.43,0,1,1,118.86,0v39.62a59.43,59.43,0,0,1,-118.86,0zm-79.24,178.3c9.905-29.72,79.24-59.44,118.86-59.44h39.62c39.62,0,108.96,29.715,118.86,59.43v19.81h-277.34z"/><g fill="#ff6e7a" transform="matrix(1,0,0,1.1116072,174.57143,904.79074)"><g fill="#ff6e7a"><path fill="#ff6e7a" d="m64,64c-6.625,0-12,5.371-12,12,0,5.219,3.352,9.613,8,11.266v12.734c0,2.211,1.789,4,4,4s4-1.789,4-4v-12.734c4.648-1.652,8-6.047,8-11.266,0-6.629-5.375-12-12-12z"/></g></g><path fill="#ff6e7a" d="m282.57,949.26h-8v-8.8929c0-19.644-14.328-35.571-32-35.571h-8c-17.672,0-32,15.927-32,35.571v8.8929h-8c-8.836,0-16,7.9636-16,17.786v62.25c0,9.8267,7.164,17.786,16,17.786h88c8.836,0,16-7.9591,16-17.786v-62.25c0-9.8222-7.164-17.786-16-17.786zm-72-8.8929c0-14.711,10.766-26.679,24-26.679h8c13.234,0,24,11.968,24,26.679v8.8929h-8v-8.8929c0-9.8088-7.18-17.786-16-17.786h-8c-8.82,0-16,7.9769-16,17.786v8.8929h-8v-8.8929zm40,8.8929h-24v-8.8929c0-4.9111,3.578-8.8929,8-8.8929h8c4.422,0,8,3.9818,8,8.8929v8.8929zm40,80.036c0,4.9022-3.586,8.8929-8,8.8929h-88c-4.414,0-8-3.9907-8-8.8929v-62.25c0-4.9022,3.586-8.8928,8-8.8928h88c4.414,0,8,3.9907,8,8.8928v62.25z"/></g></svg>
