<?xml version="1.0" ?><svg height="32px" version="1.1" viewBox="0 0 32 32" width="32px" xmlns="http://www.w3.org/2000/svg" xmlns:sketch="http://www.bohemiancoding.com/sketch/ns" xmlns:xlink="http://www.w3.org/1999/xlink"><title/><desc/><defs/><g fill="none" fill-rule="evenodd" id="Page-1" stroke="none" stroke-width="1"><g fill="#157EFB" id="icon-98-folder-upload"><path d="M16,27 L3.99328744,27 C2.89971268,27 2,26.1085295 2,25.008845 L2,14 L31,14 L31,25.0049107 C31,26.1073772 30.1075748,27 29.0067126,27 L17,27 L17,18 L20.25,21.25 L21,20.5 L16.5,16 L12,20.5 L12.75,21.25 L16,18 L16,27 L16,27 Z M2,13 L2,6.991155 C2,5.88967395 2.89666625,5 4.00276013,5 L15,5 L17,9 L28.9941413,9 C30.1029399,9 31,9.8932319 31,10.9950893 L31,13 L2,13 L2,13 L2,13 Z" id="folder-upload"/></g></g></svg>