<?xml version="1.0" ?><svg id="Layer_1" style="enable-background:new 0 0 512 512;" version="1.1" viewBox="0 0 512 512" xml:space="preserve" xmlns="http://www.w3.org/2000/svg" xmlns:xlink="http://www.w3.org/1999/xlink"><style type="text/css">
	.st0{fill:#000;}
</style><g><path class="st0" d="M190.3,303.6c16.4,23,34.6,44.8,54.3,65c5.9,7.2,16.9,7.2,22.7,0l0.4-0.4   c19.5-20,37.5-41.5,53.7-64.3l6.4-8.9c5.8-7.1,0.8-17.8-8.4-17.8h-35.3c0.2-1.3,0.4-2.7,0.5-4.1c0.4-9.3,0.8-18.6,1.3-27.8   c1.7-29.9,3.4-59.8,5.1-89.8c1.1-19.1,2.2-38.3,3.4-57.4c0.4-6.7-0.4-13.2-3.2-19.3c-7.9-17.3-26.3-26.2-44.7-21.6   c-18,4.5-30,21.6-28.7,41c0.8,12.4,1.6,24.8,2.3,37.2c2.5,46.2,5,92.5,7.5,138.7c0.1,1,0.2,2.1,0.3,3.1h-35.1   c-9.2,0-14.3,10.7-8.4,17.8L190.3,303.6z" id="XMLID_2_"/><path class="st0" d="M97.8,456.1h4h16.3h275.7H404h10.2c6.6,0,11.9-5.3,11.9-11.9V367c0-6.6-5.3-11.9-11.9-11.9   h-20.3c-6.6,0-11.9,5.3-11.9,11.9v44.2H130.1V367c0-6.6-5.3-11.9-11.9-11.9H97.8c-6.6,0-11.9,5.3-11.9,11.9v77.1   C85.9,450.7,91.2,456.1,97.8,456.1z" id="XMLID_1_"/></g></svg>
