<?xml version="1.0" ?><svg height="32px" preserveAspectRatio="xMidYMid" viewBox="0 -10 70 80" width="37px" xmlns="http://www.w3.org/2000/svg" xmlns:xlink="http://www.w3.org/1999/xlink"><defs><style>
      .cls-1 {
        fill: #b3b3b3;
      }

      .cls-1, .cls-2, .cls-3 {
        fill-rule: evenodd;
      }

      .cls-2 {
        fill: #fff;
      }

      .cls-3 {
        fill: #d6d6d6;
      }
    </style></defs><g><path class="cls-1" d="M49.000,16.842 L49.000,58.947 C49.000,61.738 46.730,64.000 43.931,64.000 L5.069,64.000 C2.269,64.000 -0.000,61.738 -0.000,58.947 L-0.000,5.053 C-0.000,2.262 2.269,-0.000 5.069,-0.000 L32.103,-0.000 L49.000,16.842 Z"/><path class="cls-2" d="M32.849,43.573 C33.033,43.784 33.295,43.889 33.634,43.889 C34.063,43.889 34.490,43.802 34.913,43.627 L35.322,45.536 C34.692,45.723 34.030,45.816 33.334,45.816 C32.233,45.816 31.440,45.569 30.956,45.075 C30.472,44.580 30.230,43.778 30.230,42.668 L30.230,37.901 L29.023,37.901 L29.023,36.047 L30.230,36.047 L30.230,33.405 L32.572,33.405 L32.572,36.047 L34.786,36.047 L34.786,37.901 L32.572,37.901 L32.572,42.370 C32.572,42.961 32.664,43.362 32.849,43.573 ZM26.064,45.536 L24.177,42.514 L22.198,45.536 L19.603,45.536 L22.888,40.850 L19.657,36.047 L22.389,36.047 L24.286,39.050 L26.237,36.047 L28.823,36.047 L25.547,40.723 L28.841,45.536 L26.064,45.536 ZM15.201,45.075 C14.717,44.580 14.475,43.778 14.475,42.668 L14.475,37.901 L13.268,37.901 L13.268,36.047 L14.475,36.047 L14.475,33.405 L16.816,33.405 L16.816,36.047 L19.031,36.047 L19.031,37.901 L16.816,37.901 L16.816,42.370 C16.816,42.961 16.908,43.362 17.093,43.573 C17.278,43.784 17.539,43.889 17.878,43.889 C18.308,43.889 18.734,43.802 19.158,43.627 L19.566,45.536 C18.937,45.723 18.274,45.816 17.579,45.816 C16.477,45.816 15.685,45.569 15.201,45.075 Z"/><path class="cls-3" d="M49.000,15.899 L49.000,17.995 L35.187,17.995 C32.327,17.995 31.008,15.675 31.008,12.814 L31.008,-0.000 L33.100,-0.000 L49.000,15.899 Z"/></g></svg>
