<?xml version="1.0" encoding="UTF-8" standalone="no"?>
<svg id="svg2" xmlns:rdf="http://www.w3.org/1999/02/22-rdf-syntax-ns#" xmlns="http://www.w3.org/2000/svg" height="32px" viewBox="0 -10 60 80" width="37px" version="1.1" xmlns:cc="http://creativecommons.org/ns#" xmlns:dc="http://purl.org/dc/elements/1.1/" preserveAspectRatio="xMidYMid">
 <g id="g3338">
  <path id="path10" d="m49 16.842v42.105c0 2.791-2.27 5.053-5.069 5.053h-38.862c-2.8 0-5.069-2.262-5.069-5.053v-53.894c0-2.791 2.269-5.053 5.069-5.053h27.034l16.897 16.842z" fill-rule="evenodd" class="cls-1" fill="#157EFB"/>
  <path id="path14" d="m49 15.899v2.096h-13.813c-2.86 0-4.179-2.32-4.179-5.181v-12.814h2.092l15.9 15.899z" fill-rule="evenodd" class="cls-3" fill="#91a8ff"/>
  <g id="globe-2" fill="#fff" transform="translate(8.8755 22.873)">
   <polygon id="polygon3351" points="13.195 6.295 13.179 6.288 13.179 6.315"/>
   <path id="path3353" d="m15.624 1.028c-7.811 0-14.167 6.355-14.167 14.167s6.356 14.167 14.167 14.167c7.812 0 14.168-6.354 14.168-14.167 0-7.812-6.356-14.167-14.168-14.167zm12.943 14.167c0 0.248-0.022 0.49-0.037 0.735-0.091-0.23-0.229-0.53-0.262-0.659-0.048-0.196-0.341-0.879-0.341-0.879s-0.293-0.39-0.488-0.488c-0.194-0.098-0.341-0.342-0.683-0.536-0.342-0.196-0.487-0.293-0.779-0.293-0.294 0-0.585-0.391-0.928-0.586-0.342-0.194-0.39-0.097-0.39-0.097s0.39 0.585 0.39 0.731 0.438 0.39 0.879 0.292c0 0 0.292 0.537 0.438 0.683s-0.049 0.293-0.341 0.488c-0.293 0.194-0.244 0.146-0.392 0.292-0.146 0.146-0.633 0.392-0.78 0.488-0.146 0.097-0.731 0.39-1.023 0.097-0.143-0.141-0.099-0.438-0.195-0.634-0.098-0.195-1.122-1.707-1.61-2.389-0.085-0.12-0.293-0.49-0.438-0.585-0.146-0.099 0.342-0.099 0.342-0.099s0-0.342-0.049-0.585c-0.05-0.244 0.049-0.585 0.049-0.585s-0.488 0.292-0.636 0.39c-0.145 0.098-0.292-0.194-0.486-0.439-0.195-0.243-0.391-0.537-0.439-0.781-0.049-0.243 0.244-0.341 0.244-0.341l0.438-0.243s0.537-0.097 0.879-0.049c0.341 0.049 0.877 0.098 0.877 0.098s0.146-0.342-0.049-0.488c-0.194-0.146-0.635-0.39-0.83-0.341-0.194 0.048 0.097-0.244 0.34-0.439l-0.54-0.098s-0.491 0.244-0.638 0.293c-0.146 0.048-0.4 0.146-0.596 0.39-0.194 0.244 0.078 0.585-0.117 0.683-0.194 0.098-0.326 0.146-0.473 0.194-0.146 0.049-0.61 0-0.61 0-0.504 0-0.181 0.46-0.05 0.623l-0.39-0.476-0.289-0.682s-0.416-0.292-0.611-0.389c-0.195-0.098-0.796-0.439-0.796-0.439l0.042 0.439 0.565 0.572 0.05 0.013 0.294 0.39-0.649 0.049v-0.386c-0.612-0.148-0.452-0.3-0.521-0.347-0.145-0.097-0.484-0.342-0.484-0.342s-0.574 0.098-0.721 0.147-0.188 0.195-0.479 0.292c-0.294 0.098-0.426 0.244-0.523 0.39s-0.415 0.585-0.608 0.78c-0.196 0.196-0.558 0.146-0.704 0.146-0.147 0-0.851-0.195-0.851-0.195v-0.827s0.095-0.464 0.047-0.61l0.427-0.072 0.713-0.147 0.209-0.147 0.3-0.39s-0.337-0.244-0.094-0.585c0.117-0.164 0.538-0.195 0.733-0.341 0.194-0.146 0.489-0.244 0.489-0.244s0.342-0.292 0.683-0.634c0 0 0.244-0.147 0.536-0.245 0 0 0.83 0.732 0.977 0.732s0.683-0.341 0.683-0.341 0.146-0.438 0.098-0.585c-0.049-0.146-0.293-0.634-0.293-0.634s-0.146 0.244-0.292 0.439-0.244 0.439-0.244 0.439-0.683-0.047-0.731-0.193c-0.05-0.147-0.146-0.388-0.196-0.533-0.047-0.147-0.438-0.142-0.729-0.044-0.294 0.098 0.047-0.526 0.047-0.526s0.294-0.368 0.488-0.368 0.635-0.25 0.828-0.298c0.196-0.049 0.783-0.272 1.025-0.272 0.244 0 0.537 0.105 0.684 0.105h0.731l1.023-0.082s0.879 0.325 0.585 0.521c0 0 0.343 0.211 0.489 0.357 0.137 0.138 0.491-0.127 0.694-0.24 3.649 2.29 6.089 6.341 6.089 10.96zm-23.271-7.632c0 0.195-0.266 0.242 0 0.732 0.34 0.634 0.048 0.927 0.048 0.927s-0.83 0.585-0.976 0.683-0.536 0.634-0.293 0.487c0.244-0.146 0.536-0.292 0.293 0.098-0.244 0.391-0.683 1.024-0.78 1.269s-0.585 0.829-0.585 1.122-0.195 0.879-0.146 1.123c0.033 0.17-0.075 0.671-0.16 0.877 0.066-2.742 0.989-5.269 2.513-7.336 0.05 0.005 0.086 0.018 0.086 0.018zm1.567-1.87c1.193-1.101 2.591-1.979 4.133-2.573-0.152 0.195-0.336 0.395-0.336 0.395s-0.341-0.001-0.976 0.683c-0.633 0.683-0.487 0.488-0.633 0.682s-0.098 0.244-0.44 0.489c-0.34 0.243-0.487 0.536-0.487 0.536l-0.537 0.195-0.438-0.195s-0.392 0.147-0.343-0.049c0.014-0.052 0.035-0.106 0.057-0.163zm5.846 1.138-0.194-0.292 0.194-0.439 0.47 0.188v-0.871l0.449-0.243 0.373 0.536 0.574 0.635-0.381 0.292-1.016 0.195v-0.517l-0.469 0.516zm6.342 4.585c0.114-0.09 0.487 0.146 0.487 0.146s1.219 0.244 1.414 0.39c0.196 0.147 0.537 0.245 0.635 0.392 0.098 0.146 0.438 0.585 0.486 0.731 0.05 0.146 0.294 0.684 0.343 0.878 0.049 0.195 0.195 0.683 0.341 0.927 0.146 0.245 0.976 1.317 1.268 1.805l0.88-0.146s-0.099 0.438-0.196 0.585c-0.097 0.146-0.39 0.536-0.536 0.731-0.147 0.195-0.341 0.488-0.634 0.731-0.292 0.243-0.294 0.487-0.439 0.683-0.146 0.195-0.342 0.634-0.342 0.634s0.098 0.976 0.146 1.171-0.341 0.731-0.341 0.731l-0.44 0.44-0.588 0.779 0.048 0.731s-0.444 0.343-0.689 0.537c-0.242 0.194-0.204 0.341-0.399 0.537-0.194 0.194-0.957 0.536-1.152 0.585s-1.271 0.195-1.271 0.195v-0.438l-0.022-0.488s-0.148-0.585-0.295-0.78-0.083-0.489-0.327-0.732c-0.244-0.244-0.334-0.438-0.383-0.586-0.049-0.146 0.053-0.584 0.053-0.584s0.197-0.537 0.294-0.732c0.098-0.195 0.001-0.487-0.097-0.683s-0.145-0.684-0.145-0.829c0-0.146-0.392-0.391-0.538-0.537s-0.097-0.342-0.097-0.535c0-0.197-0.146-0.635-0.098-0.977 0.049-0.341-0.438-0.098-0.731 0s-0.487-0.098-0.487-0.391-0.536-0.048-0.878 0.146c-0.343 0.195-0.732 0.195-1.124 0.342-0.389 0.146-0.583-0.146-0.583-0.146s-0.343-0.292-0.585-0.439c-0.245-0.146-0.489-0.438-0.685-0.682-0.194-0.245-0.683-0.977-0.73-1.268-0.049-0.294 0-0.49 0-0.831s0-0.536 0.048-0.78c0.049-0.244 0.195-0.537 0.342-0.781 0.146-0.244 0.683-0.536 0.828-0.634 0.146-0.097 0.488-0.389 0.488-0.585 0-0.195 0.196-0.292 0.292-0.488 0.099-0.195 0.44-0.682 0.879-0.487 0 0 0.389-0.048 0.535-0.097s0.536-0.194 0.729-0.292c0.195-0.098 0.681-0.144 0.681-0.144s0.384 0.153 0.53 0.153 0.622-0.085 0.622-0.085 0.22 0.707 0.22 0.854 0.146 0.292 0.391 0.39c0.241 0.099 1.364 0.344 1.852-0.047zm5.609 9.561c0 0.146-0.049 0.537-0.098 0.732-0.051 0.195-0.147 0.537-0.195 0.73-0.049 0.196-0.293 0.586-0.438 0.684-0.146 0.098-0.391 0.391-0.536 0.439-0.146 0.049-0.245-0.342-0.196-0.537 0.05-0.195 0.293-0.731 0.293-0.731s0.049-0.292 0.097-0.488c0.05-0.194 0.635-0.438 0.635-0.438l0.391-0.732c-0.002-0.001 0.047 0.196 0.047 0.341zm-21.645-2.906c0.063 0.016 0.153 0.062 0.28 0.175 0.184 0.16 0.293 0.242 0.537 0.341 0.243 0.099 0.341 0.243 0.634 0.39s0.196 0.05 0.585 0.488c0.391 0.438 0.342 0.438 0.439 0.683s0.244 0.487 0.342 0.635c0.098 0.146 0.39 0.243 0.536 0.341s0.39 0.195 0.536 0.195c0.147 0 0.586 0.439 0.83 0.487 0.244 0.05 0.244 0.538 0.244 0.538l-0.244 0.682-0.196 0.731 0.196 0.585s-0.294 0.245-0.487 0.245c-0.18 0-0.241 0.114-0.438 0.06-1.86-1.737-3.209-4.009-3.794-6.576z"/>
  </g>
 </g>
</svg>
